<svg width="22" height="15" viewBox="0 0 22 15" fill="none" xmlns="http://www.w3.org/2000/svg">
<path d="M21.9368 7.03634C21.9047 6.96392 21.1283 5.2415 19.4022 3.51542C17.1023 1.2155 14.1973 0 11 0C7.80266 0 4.89774 1.2155 2.59783 3.51542C0.871742 5.2415 0.091658 6.96667 0.0632413 7.03634C0.021545 7.13013 0 7.23162 0 7.33426C0 7.43689 0.021545 7.53839 0.0632413 7.63217C0.0953246 7.70459 0.871742 9.42609 2.59783 11.1522C4.89774 13.4512 7.80266 14.6667 11 14.6667C14.1973 14.6667 17.1023 13.4512 19.4022 11.1522C21.1283 9.42609 21.9047 7.70459 21.9368 7.63217C21.9785 7.53839 22 7.43689 22 7.33426C22 7.23162 21.9785 7.13013 21.9368 7.03634ZM11 13.2C8.1785 13.2 5.71358 12.1743 3.67308 10.1521C2.83583 9.31948 2.12353 8.37005 1.55833 7.33334C2.12338 6.29653 2.8357 5.34708 3.67308 4.51459C5.71358 2.49242 8.1785 1.46667 11 1.46667C13.8215 1.46667 16.2864 2.49242 18.3269 4.51459C19.1658 5.34688 19.8797 6.29633 20.4463 7.33334C19.7853 8.56717 16.9061 13.2 11 13.2ZM11 2.93334C10.1298 2.93334 9.27907 3.19139 8.55549 3.67487C7.83191 4.15835 7.26795 4.84554 6.93493 5.64953C6.6019 6.45353 6.51477 7.33822 6.68454 8.19174C6.85432 9.04525 7.27338 9.82926 7.88873 10.4446C8.50408 11.06 9.28808 11.479 10.1416 11.6488C10.9951 11.8186 11.8798 11.7314 12.6838 11.3984C13.4878 11.0654 14.175 10.5014 14.6585 9.77785C15.1419 9.05427 15.4 8.20358 15.4 7.33334C15.3988 6.16676 14.9348 5.04831 14.1099 4.22341C13.285 3.39851 12.1666 2.93455 11 2.93334ZM11 10.2667C10.4198 10.2667 9.85271 10.0946 9.37033 9.77232C8.88794 9.45 8.51197 8.99188 8.28995 8.45588C8.06793 7.91988 8.00984 7.33009 8.12303 6.76107C8.23621 6.19206 8.51558 5.66939 8.92582 5.25916C9.33605 4.84892 9.85872 4.56955 10.4277 4.45637C10.9967 4.34318 11.5865 4.40127 12.1225 4.62329C12.6585 4.84531 13.1167 5.22128 13.439 5.70367C13.7613 6.18605 13.9333 6.75318 13.9333 7.33334C13.9333 8.11131 13.6243 8.85741 13.0742 9.40752C12.5241 9.95763 11.778 10.2667 11 10.2667Z" fill="black"/>
</svg>
