<svg width="22" height="22" viewBox="0 0 22 22" fill="none" xmlns="http://www.w3.org/2000/svg">
<path d="M8.15323 4.408C9.42023 2.136 10.0532 1 11.0002 1C11.9472 1 12.5802 2.136 13.8472 4.408L14.1752 4.996C14.5352 5.642 14.7152 5.965 14.9952 6.178C15.2752 6.391 15.6252 6.47 16.3252 6.628L16.9612 6.772C19.4212 7.329 20.6502 7.607 20.9432 8.548C21.2352 9.488 20.3972 10.469 18.7202 12.43L18.2862 12.937C17.8102 13.494 17.5712 13.773 17.4642 14.117C17.3572 14.462 17.3932 14.834 17.4652 15.577L17.5312 16.254C17.7842 18.871 17.9112 20.179 17.1452 20.76C16.3792 21.342 15.2272 20.811 12.9252 19.751L12.3282 19.477C11.6742 19.175 11.3472 19.025 11.0002 19.025C10.6532 19.025 10.3262 19.175 9.67223 19.477L9.07623 19.751C6.77323 20.811 5.62124 21.341 4.85624 20.761C4.08924 20.179 4.21623 18.871 4.46923 16.254L4.53523 15.578C4.60723 14.834 4.64323 14.462 4.53523 14.118C4.42923 13.773 4.19024 13.494 3.71424 12.938L3.28024 12.43C1.60324 10.47 0.765235 9.489 1.05723 8.548C1.35024 7.607 2.58024 7.328 5.04024 6.772L5.67624 6.628C6.37524 6.47 6.72424 6.391 7.00524 6.178C7.28524 5.965 7.46523 5.642 7.82523 4.996L8.15323 4.408Z" stroke="black" stroke-width="1.5"/>
</svg>
