<svg width="" height="" viewBox="0 0 842 847" fill="none" xmlns="http://www.w3.org/2000/svg">
<path d="M396.667 0.325062C349.467 3.79173 302.267 15.5251 255.2 35.5251C198.533 59.6584 140.8 102.725 100.133 150.858C77.7333 177.392 72.6667 184.192 59.3333 206.192C29.6 255.125 12 302.858 4 356.458C0.533333 379.525 0 388.725 0 426.858C0.133333 470.725 2.4 490.592 12 528.192C27.2 588.058 53.8667 640.325 95.8667 692.858C106.667 706.325 138.8 738.192 152.533 748.858C224 804.858 295.2 834.992 378 844.325C399.867 846.725 446.133 846.725 467.333 844.192C563.067 832.992 655.333 786.592 724.8 714.592C789.6 647.525 827.067 567.258 838.8 470.192C841.733 446.725 842.133 392.058 839.6 372.858C826.8 276.592 782.4 189.258 711.2 120.192C680.667 90.5917 655.067 71.6584 615.733 49.6584C575.733 27.3917 524.533 10.8584 471.333 2.99173C457.6 0.991728 411.067 -0.741605 396.667 0.325062ZM446.8 79.5251C495.867 83.2584 550.267 100.992 593.333 127.258C674.933 176.858 731.867 251.925 754.533 339.525C761.867 367.658 764.667 390.992 764.667 422.592C764.667 491.658 743.6 560.858 705.333 617.658C690.667 639.525 680.8 651.258 660.533 670.858C621.733 708.592 578 734.858 525.467 752.192C486.133 765.258 456.267 769.525 411.6 768.458C357.2 767.392 318.933 757.792 268 732.858C218.667 708.725 180 676.592 146.4 632.192C112.8 587.792 88.4 529.792 79.7333 474.192C76.2667 452.058 76.2667 392.858 79.7333 372.192C88 323.125 105.867 276.058 130.8 238.858C203.333 130.458 323.067 70.0584 446.8 79.5251Z" fill="black"/>
<path d="M390 140.992C271.867 154.592 173.867 240.592 144.8 356.192C138.4 381.258 137.333 390.858 137.333 424.192C137.333 451.658 137.867 458.592 140.4 473.258C150.533 529.792 177.067 580.992 218.4 624.458C233.734 640.325 243.867 648.858 262 660.725C330.534 705.792 411.734 719.525 490.134 699.525C548.667 684.592 596.667 655.258 634.267 611.525C669.734 570.458 690.8 525.258 701.467 467.525C705.067 448.192 704.8 400.325 700.934 379.525C683.467 284.592 625.734 207.658 541.6 167.525C514.667 154.592 478 144.192 448.4 140.992C433.467 139.258 404.534 139.392 390 140.992ZM488.667 269.792C488.667 303.125 488.8 304.058 491.6 307.125C494.4 310.192 494.667 310.192 526.667 310.192C544.4 310.192 561.734 310.592 565.2 310.992L571.334 311.925V460.325V608.858H421.334H271.334V422.192V235.525H380H488.667V269.792Z" fill="black"/>
<path d="M347.333 346.058C340.533 347.392 336.933 349.792 334.667 354.192C330.667 361.792 332.933 371.125 340.133 376.725C343.6 379.525 344.667 379.525 421.467 379.525H499.067L503.2 376.192C505.333 374.325 507.733 370.858 508.533 368.458C510.267 363.258 508.667 355.125 505.067 351.258C499.467 344.858 498.533 344.858 422.933 344.992C384 345.125 349.867 345.658 347.333 346.058Z" fill="black"/>
<path d="M337.2 422.725C333.2 426.725 332.667 428.058 332.667 434.192C332.667 440.458 333.2 441.658 337.867 446.325L343.067 451.525H419.867C504.267 451.525 502.4 451.658 506.667 443.525C507.733 441.392 508.667 436.858 508.667 433.392C508.667 428.192 508 426.592 504.133 422.725L499.6 418.192H420.667H341.733L337.2 422.725Z" fill="black"/>
<path d="M341.2 490.858C329.333 496.858 330.133 516.458 342.667 521.658C349.6 524.458 493.733 524.458 499.333 521.525C505.733 518.192 508.667 513.258 508.667 506.058C508.667 500.458 508 498.725 504.133 494.458L499.6 489.525L422.4 489.258C355.733 488.992 344.8 489.125 341.2 490.858Z" fill="black"/>
</svg>
